<mxfile host="app.diagrams.net" modified="2024-06-22T09:32:27.843Z" agent="Mozilla/5.0 (Windows NT 10.0; Win64; x64) AppleWebKit/537.36 (KHTML, like Gecko) Chrome/126.0.0.0 Safari/537.36" etag="VojWfkPEUIn6MALqw-6x" version="24.6.1" type="github">
  <diagram id="R2lEEEUBdFMjLlhIrx00" name="Page-1">
    <mxGraphModel dx="1100" dy="575" grid="1" gridSize="10" guides="1" tooltips="1" connect="1" arrows="1" fold="1" page="1" pageScale="1" pageWidth="850" pageHeight="1100" math="0" shadow="0" extFonts="Permanent Marker^https://fonts.googleapis.com/css?family=Permanent+Marker">
      <root>
        <mxCell id="0" />
        <mxCell id="1" parent="0" />
        <mxCell id="fJ_m940XIqK0hsvLyduS-2" value="DOKTER" style="rounded=0;whiteSpace=wrap;html=1;" vertex="1" parent="1">
          <mxGeometry x="80" y="160" width="80" height="40" as="geometry" />
        </mxCell>
        <mxCell id="fJ_m940XIqK0hsvLyduS-3" value="OBAT" style="rounded=0;whiteSpace=wrap;html=1;" vertex="1" parent="1">
          <mxGeometry x="650" y="320" width="80" height="40" as="geometry" />
        </mxCell>
        <mxCell id="fJ_m940XIqK0hsvLyduS-4" value="KAMAR" style="rounded=0;whiteSpace=wrap;html=1;" vertex="1" parent="1">
          <mxGeometry x="363.75" y="320" width="75" height="40" as="geometry" />
        </mxCell>
        <mxCell id="fJ_m940XIqK0hsvLyduS-5" value="PASIEN" style="rounded=0;whiteSpace=wrap;html=1;" vertex="1" parent="1">
          <mxGeometry x="372.5" y="160" width="55" height="40" as="geometry" />
        </mxCell>
        <mxCell id="fJ_m940XIqK0hsvLyduS-6" value="ADMINISTRASI" style="rounded=0;whiteSpace=wrap;html=1;" vertex="1" parent="1">
          <mxGeometry x="640" y="160" width="100" height="40" as="geometry" />
        </mxCell>
        <mxCell id="fJ_m940XIqK0hsvLyduS-7" value="PERAWAT" style="rounded=0;whiteSpace=wrap;html=1;" vertex="1" parent="1">
          <mxGeometry x="80" y="320" width="80" height="40" as="geometry" />
        </mxCell>
        <mxCell id="fJ_m940XIqK0hsvLyduS-24" value="Jenis Kelamin" style="ellipse;whiteSpace=wrap;html=1;" vertex="1" parent="1">
          <mxGeometry x="10" y="110" width="50" height="40" as="geometry" />
        </mxCell>
        <mxCell id="fJ_m940XIqK0hsvLyduS-25" value="id" style="ellipse;whiteSpace=wrap;html=1;" vertex="1" parent="1">
          <mxGeometry x="60" y="70" width="50" height="40" as="geometry" />
        </mxCell>
        <mxCell id="fJ_m940XIqK0hsvLyduS-26" value="Nama" style="ellipse;whiteSpace=wrap;html=1;" vertex="1" parent="1">
          <mxGeometry x="130" y="70" width="50" height="40" as="geometry" />
        </mxCell>
        <mxCell id="fJ_m940XIqK0hsvLyduS-27" value="Spesialis" style="ellipse;whiteSpace=wrap;html=1;" vertex="1" parent="1">
          <mxGeometry x="160" y="110" width="50" height="40" as="geometry" />
        </mxCell>
        <mxCell id="fJ_m940XIqK0hsvLyduS-28" value="memeriksa" style="rhombus;whiteSpace=wrap;html=1;" vertex="1" parent="1">
          <mxGeometry x="220" y="160" width="80" height="40" as="geometry" />
        </mxCell>
        <mxCell id="fJ_m940XIqK0hsvLyduS-34" value="" style="endArrow=none;html=1;rounded=0;exitX=0;exitY=0.5;exitDx=0;exitDy=0;entryX=1;entryY=1;entryDx=0;entryDy=0;" edge="1" parent="1" source="fJ_m940XIqK0hsvLyduS-2" target="fJ_m940XIqK0hsvLyduS-24">
          <mxGeometry width="50" height="50" relative="1" as="geometry">
            <mxPoint x="390" y="200" as="sourcePoint" />
            <mxPoint x="440" y="150" as="targetPoint" />
          </mxGeometry>
        </mxCell>
        <mxCell id="fJ_m940XIqK0hsvLyduS-37" value="" style="endArrow=none;html=1;rounded=0;exitX=0.25;exitY=0;exitDx=0;exitDy=0;entryX=0.5;entryY=1;entryDx=0;entryDy=0;" edge="1" parent="1" source="fJ_m940XIqK0hsvLyduS-2" target="fJ_m940XIqK0hsvLyduS-25">
          <mxGeometry width="50" height="50" relative="1" as="geometry">
            <mxPoint x="390" y="200" as="sourcePoint" />
            <mxPoint x="440" y="150" as="targetPoint" />
          </mxGeometry>
        </mxCell>
        <mxCell id="fJ_m940XIqK0hsvLyduS-38" value="" style="endArrow=none;html=1;rounded=0;exitX=0.75;exitY=0;exitDx=0;exitDy=0;entryX=0.5;entryY=1;entryDx=0;entryDy=0;" edge="1" parent="1" source="fJ_m940XIqK0hsvLyduS-2" target="fJ_m940XIqK0hsvLyduS-26">
          <mxGeometry width="50" height="50" relative="1" as="geometry">
            <mxPoint x="390" y="200" as="sourcePoint" />
            <mxPoint x="440" y="150" as="targetPoint" />
          </mxGeometry>
        </mxCell>
        <mxCell id="fJ_m940XIqK0hsvLyduS-39" value="" style="endArrow=none;html=1;rounded=0;exitX=1;exitY=0.5;exitDx=0;exitDy=0;entryX=0.5;entryY=1;entryDx=0;entryDy=0;" edge="1" parent="1" source="fJ_m940XIqK0hsvLyduS-2" target="fJ_m940XIqK0hsvLyduS-27">
          <mxGeometry width="50" height="50" relative="1" as="geometry">
            <mxPoint x="390" y="200" as="sourcePoint" />
            <mxPoint x="440" y="150" as="targetPoint" />
          </mxGeometry>
        </mxCell>
        <mxCell id="fJ_m940XIqK0hsvLyduS-40" value="&lt;font size=&quot;1&quot;&gt;Jenis Kelamin&lt;/font&gt;" style="ellipse;whiteSpace=wrap;html=1;" vertex="1" parent="1">
          <mxGeometry x="300" y="110" width="50" height="40" as="geometry" />
        </mxCell>
        <mxCell id="fJ_m940XIqK0hsvLyduS-41" value="id" style="ellipse;whiteSpace=wrap;html=1;" vertex="1" parent="1">
          <mxGeometry x="322.5" y="60" width="50" height="40" as="geometry" />
        </mxCell>
        <mxCell id="fJ_m940XIqK0hsvLyduS-42" value="TTL" style="ellipse;whiteSpace=wrap;html=1;" vertex="1" parent="1">
          <mxGeometry x="372.5" y="20" width="50" height="40" as="geometry" />
        </mxCell>
        <mxCell id="fJ_m940XIqK0hsvLyduS-45" style="edgeStyle=orthogonalEdgeStyle;rounded=0;orthogonalLoop=1;jettySize=auto;html=1;exitX=1;exitY=1;exitDx=0;exitDy=0;" edge="1" parent="1" source="fJ_m940XIqK0hsvLyduS-43">
          <mxGeometry relative="1" as="geometry">
            <mxPoint x="440" y="83.75" as="targetPoint" />
          </mxGeometry>
        </mxCell>
        <mxCell id="fJ_m940XIqK0hsvLyduS-43" value="Nama" style="ellipse;whiteSpace=wrap;html=1;" vertex="1" parent="1">
          <mxGeometry x="425" y="60" width="50" height="40" as="geometry" />
        </mxCell>
        <mxCell id="fJ_m940XIqK0hsvLyduS-44" value="Alamat" style="ellipse;whiteSpace=wrap;html=1;" vertex="1" parent="1">
          <mxGeometry x="450" y="110" width="50" height="40" as="geometry" />
        </mxCell>
        <mxCell id="fJ_m940XIqK0hsvLyduS-46" value="" style="endArrow=none;html=1;rounded=0;exitX=0;exitY=0.5;exitDx=0;exitDy=0;entryX=0.5;entryY=1;entryDx=0;entryDy=0;" edge="1" parent="1" source="fJ_m940XIqK0hsvLyduS-5" target="fJ_m940XIqK0hsvLyduS-40">
          <mxGeometry width="50" height="50" relative="1" as="geometry">
            <mxPoint x="390" y="200" as="sourcePoint" />
            <mxPoint x="440" y="150" as="targetPoint" />
          </mxGeometry>
        </mxCell>
        <mxCell id="fJ_m940XIqK0hsvLyduS-47" value="" style="endArrow=none;html=1;rounded=0;exitX=0;exitY=0;exitDx=0;exitDy=0;entryX=0.5;entryY=1;entryDx=0;entryDy=0;" edge="1" parent="1" source="fJ_m940XIqK0hsvLyduS-5" target="fJ_m940XIqK0hsvLyduS-41">
          <mxGeometry width="50" height="50" relative="1" as="geometry">
            <mxPoint x="390" y="200" as="sourcePoint" />
            <mxPoint x="440" y="150" as="targetPoint" />
          </mxGeometry>
        </mxCell>
        <mxCell id="fJ_m940XIqK0hsvLyduS-48" value="" style="endArrow=none;html=1;rounded=0;exitX=0.5;exitY=0;exitDx=0;exitDy=0;entryX=0.5;entryY=1;entryDx=0;entryDy=0;" edge="1" parent="1" source="fJ_m940XIqK0hsvLyduS-5" target="fJ_m940XIqK0hsvLyduS-42">
          <mxGeometry width="50" height="50" relative="1" as="geometry">
            <mxPoint x="390" y="200" as="sourcePoint" />
            <mxPoint x="440" y="150" as="targetPoint" />
          </mxGeometry>
        </mxCell>
        <mxCell id="fJ_m940XIqK0hsvLyduS-49" value="" style="endArrow=none;html=1;rounded=0;entryX=0.5;entryY=1;entryDx=0;entryDy=0;exitX=1;exitY=0;exitDx=0;exitDy=0;" edge="1" parent="1" source="fJ_m940XIqK0hsvLyduS-5" target="fJ_m940XIqK0hsvLyduS-43">
          <mxGeometry width="50" height="50" relative="1" as="geometry">
            <mxPoint x="390" y="200" as="sourcePoint" />
            <mxPoint x="440" y="150" as="targetPoint" />
          </mxGeometry>
        </mxCell>
        <mxCell id="fJ_m940XIqK0hsvLyduS-50" value="" style="endArrow=none;html=1;rounded=0;entryX=0.5;entryY=1;entryDx=0;entryDy=0;" edge="1" parent="1" target="fJ_m940XIqK0hsvLyduS-44">
          <mxGeometry width="50" height="50" relative="1" as="geometry">
            <mxPoint x="430" y="180" as="sourcePoint" />
            <mxPoint x="440" y="150" as="targetPoint" />
          </mxGeometry>
        </mxCell>
        <mxCell id="fJ_m940XIqK0hsvLyduS-53" value="memeriksa" style="rhombus;whiteSpace=wrap;html=1;" vertex="1" parent="1">
          <mxGeometry x="500" y="160" width="80" height="40" as="geometry" />
        </mxCell>
        <mxCell id="fJ_m940XIqK0hsvLyduS-56" value="Jenis Kelamin" style="ellipse;whiteSpace=wrap;html=1;" vertex="1" parent="1">
          <mxGeometry x="600" y="110" width="50" height="40" as="geometry" />
        </mxCell>
        <mxCell id="fJ_m940XIqK0hsvLyduS-57" value="id" style="ellipse;whiteSpace=wrap;html=1;" vertex="1" parent="1">
          <mxGeometry x="665" y="70" width="50" height="40" as="geometry" />
        </mxCell>
        <mxCell id="fJ_m940XIqK0hsvLyduS-58" value="Nama" style="ellipse;whiteSpace=wrap;html=1;" vertex="1" parent="1">
          <mxGeometry x="730" y="110" width="50" height="40" as="geometry" />
        </mxCell>
        <mxCell id="fJ_m940XIqK0hsvLyduS-59" value="" style="endArrow=none;html=1;rounded=0;exitX=0.5;exitY=0;exitDx=0;exitDy=0;entryX=1;entryY=1;entryDx=0;entryDy=0;" edge="1" parent="1" source="fJ_m940XIqK0hsvLyduS-6" target="fJ_m940XIqK0hsvLyduS-56">
          <mxGeometry width="50" height="50" relative="1" as="geometry">
            <mxPoint x="390" y="210" as="sourcePoint" />
            <mxPoint x="440" y="160" as="targetPoint" />
          </mxGeometry>
        </mxCell>
        <mxCell id="fJ_m940XIqK0hsvLyduS-60" value="" style="endArrow=none;html=1;rounded=0;exitX=0.5;exitY=0;exitDx=0;exitDy=0;entryX=0.5;entryY=1;entryDx=0;entryDy=0;" edge="1" parent="1" source="fJ_m940XIqK0hsvLyduS-6" target="fJ_m940XIqK0hsvLyduS-57">
          <mxGeometry width="50" height="50" relative="1" as="geometry">
            <mxPoint x="390" y="210" as="sourcePoint" />
            <mxPoint x="440" y="160" as="targetPoint" />
          </mxGeometry>
        </mxCell>
        <mxCell id="fJ_m940XIqK0hsvLyduS-61" value="" style="endArrow=none;html=1;rounded=0;entryX=0;entryY=1;entryDx=0;entryDy=0;exitX=0.5;exitY=0;exitDx=0;exitDy=0;" edge="1" parent="1" source="fJ_m940XIqK0hsvLyduS-6" target="fJ_m940XIqK0hsvLyduS-58">
          <mxGeometry width="50" height="50" relative="1" as="geometry">
            <mxPoint x="390" y="210" as="sourcePoint" />
            <mxPoint x="440" y="160" as="targetPoint" />
          </mxGeometry>
        </mxCell>
        <mxCell id="fJ_m940XIqK0hsvLyduS-62" value="rawat inap&lt;span style=&quot;color: rgba(0, 0, 0, 0); font-family: monospace; font-size: 0px; text-align: start; text-wrap: nowrap;&quot;&gt;%3CmxGraphModel%3E%3Croot%3E%3CmxCell%20id%3D%220%22%2F%3E%3CmxCell%20id%3D%221%22%20parent%3D%220%22%2F%3E%3CmxCell%20id%3D%222%22%20value%3D%22memeriksa%22%20style%3D%22rhombus%3BwhiteSpace%3Dwrap%3Bhtml%3D1%3B%22%20vertex%3D%221%22%20parent%3D%221%22%3E%3CmxGeometry%20x%3D%22220%22%20y%3D%22160%22%20width%3D%2280%22%20height%3D%2240%22%20as%3D%22geometry%22%2F%3E%3C%2FmxCell%3E%3C%2Froot%3E%3C%2FmxGraphModel%3E&lt;/span&gt;&lt;span style=&quot;color: rgba(0, 0, 0, 0); font-family: monospace; font-size: 0px; text-align: start; text-wrap: nowrap;&quot;&gt;%3CmxGraphModel%3E%3Croot%3E%3CmxCell%20id%3D%220%22%2F%3E%3CmxCell%20id%3D%221%22%20parent%3D%220%22%2F%3E%3CmxCell%20id%3D%222%22%20value%3D%22memeriksa%22%20style%3D%22rhombus%3BwhiteSpace%3Dwrap%3Bhtml%3D1%3B%22%20vertex%3D%221%22%20parent%3D%221%22%3E%3CmxGeometry%20x%3D%22220%22%20y%3D%22160%22%20width%3D%2280%22%20height%3D%2240%22%20as%3D%22geometry%22%2F%3E%3C%2FmxCell%3E%3C%2Froot%3E%3C%2FmxGraphModel%3E&lt;/span&gt;" style="rhombus;whiteSpace=wrap;html=1;" vertex="1" parent="1">
          <mxGeometry x="357.5" y="250" width="80" height="40" as="geometry" />
        </mxCell>
        <mxCell id="fJ_m940XIqK0hsvLyduS-63" value="dirawat" style="rhombus;whiteSpace=wrap;html=1;" vertex="1" parent="1">
          <mxGeometry x="220" y="260" width="80" height="40" as="geometry" />
        </mxCell>
        <mxCell id="fJ_m940XIqK0hsvLyduS-64" value="tebus obat" style="rhombus;whiteSpace=wrap;html=1;" vertex="1" parent="1">
          <mxGeometry x="510" y="250" width="80" height="40" as="geometry" />
        </mxCell>
        <mxCell id="fJ_m940XIqK0hsvLyduS-65" value="Nama" style="ellipse;whiteSpace=wrap;html=1;" vertex="1" parent="1">
          <mxGeometry x="435" y="400" width="50" height="40" as="geometry" />
        </mxCell>
        <mxCell id="fJ_m940XIqK0hsvLyduS-66" value="No Kamar" style="ellipse;whiteSpace=wrap;html=1;" vertex="1" parent="1">
          <mxGeometry x="363.75" y="420" width="67.5" height="40" as="geometry" />
        </mxCell>
        <mxCell id="fJ_m940XIqK0hsvLyduS-67" value="Kelas" style="ellipse;whiteSpace=wrap;html=1;" vertex="1" parent="1">
          <mxGeometry x="310" y="400" width="50" height="40" as="geometry" />
        </mxCell>
        <mxCell id="fJ_m940XIqK0hsvLyduS-68" value="" style="endArrow=none;html=1;rounded=0;entryX=0.5;entryY=1;entryDx=0;entryDy=0;exitX=0.5;exitY=0;exitDx=0;exitDy=0;" edge="1" parent="1" source="fJ_m940XIqK0hsvLyduS-67" target="fJ_m940XIqK0hsvLyduS-4">
          <mxGeometry width="50" height="50" relative="1" as="geometry">
            <mxPoint x="390" y="460" as="sourcePoint" />
            <mxPoint x="440" y="410" as="targetPoint" />
          </mxGeometry>
        </mxCell>
        <mxCell id="fJ_m940XIqK0hsvLyduS-69" value="" style="endArrow=none;html=1;rounded=0;exitX=0.5;exitY=0;exitDx=0;exitDy=0;" edge="1" parent="1" source="fJ_m940XIqK0hsvLyduS-66">
          <mxGeometry width="50" height="50" relative="1" as="geometry">
            <mxPoint x="390" y="460" as="sourcePoint" />
            <mxPoint x="400" y="360" as="targetPoint" />
          </mxGeometry>
        </mxCell>
        <mxCell id="fJ_m940XIqK0hsvLyduS-70" value="" style="endArrow=none;html=1;rounded=0;entryX=0.5;entryY=1;entryDx=0;entryDy=0;exitX=0.5;exitY=0;exitDx=0;exitDy=0;" edge="1" parent="1" source="fJ_m940XIqK0hsvLyduS-65" target="fJ_m940XIqK0hsvLyduS-4">
          <mxGeometry width="50" height="50" relative="1" as="geometry">
            <mxPoint x="390" y="460" as="sourcePoint" />
            <mxPoint x="400" y="370" as="targetPoint" />
          </mxGeometry>
        </mxCell>
        <mxCell id="fJ_m940XIqK0hsvLyduS-71" value="Alamat" style="ellipse;whiteSpace=wrap;html=1;" vertex="1" parent="1">
          <mxGeometry x="160" y="380" width="50" height="40" as="geometry" />
        </mxCell>
        <mxCell id="fJ_m940XIqK0hsvLyduS-72" value="Jenis Kelamin" style="ellipse;whiteSpace=wrap;html=1;" vertex="1" parent="1">
          <mxGeometry x="120" y="420" width="70" height="40" as="geometry" />
        </mxCell>
        <mxCell id="fJ_m940XIqK0hsvLyduS-73" value="Nama" style="ellipse;whiteSpace=wrap;html=1;" vertex="1" parent="1">
          <mxGeometry x="60" y="420" width="50" height="40" as="geometry" />
        </mxCell>
        <mxCell id="fJ_m940XIqK0hsvLyduS-74" value="id" style="ellipse;whiteSpace=wrap;html=1;" vertex="1" parent="1">
          <mxGeometry x="30" y="380" width="50" height="40" as="geometry" />
        </mxCell>
        <mxCell id="fJ_m940XIqK0hsvLyduS-75" value="" style="endArrow=none;html=1;rounded=0;entryX=0.5;entryY=1;entryDx=0;entryDy=0;exitX=0.5;exitY=0;exitDx=0;exitDy=0;" edge="1" parent="1" source="fJ_m940XIqK0hsvLyduS-74" target="fJ_m940XIqK0hsvLyduS-7">
          <mxGeometry width="50" height="50" relative="1" as="geometry">
            <mxPoint x="50" y="380" as="sourcePoint" />
            <mxPoint x="440" y="280" as="targetPoint" />
          </mxGeometry>
        </mxCell>
        <mxCell id="fJ_m940XIqK0hsvLyduS-76" value="" style="endArrow=none;html=1;rounded=0;entryX=0.5;entryY=1;entryDx=0;entryDy=0;" edge="1" parent="1" source="fJ_m940XIqK0hsvLyduS-73" target="fJ_m940XIqK0hsvLyduS-7">
          <mxGeometry width="50" height="50" relative="1" as="geometry">
            <mxPoint x="390" y="330" as="sourcePoint" />
            <mxPoint x="440" y="280" as="targetPoint" />
          </mxGeometry>
        </mxCell>
        <mxCell id="fJ_m940XIqK0hsvLyduS-77" value="" style="endArrow=none;html=1;rounded=0;entryX=0.5;entryY=1;entryDx=0;entryDy=0;exitX=0.5;exitY=0;exitDx=0;exitDy=0;" edge="1" parent="1" source="fJ_m940XIqK0hsvLyduS-72" target="fJ_m940XIqK0hsvLyduS-7">
          <mxGeometry width="50" height="50" relative="1" as="geometry">
            <mxPoint x="390" y="330" as="sourcePoint" />
            <mxPoint x="440" y="280" as="targetPoint" />
          </mxGeometry>
        </mxCell>
        <mxCell id="fJ_m940XIqK0hsvLyduS-78" value="" style="endArrow=none;html=1;rounded=0;entryX=0.5;entryY=1;entryDx=0;entryDy=0;exitX=0.5;exitY=0;exitDx=0;exitDy=0;" edge="1" parent="1" source="fJ_m940XIqK0hsvLyduS-71" target="fJ_m940XIqK0hsvLyduS-7">
          <mxGeometry width="50" height="50" relative="1" as="geometry">
            <mxPoint x="390" y="330" as="sourcePoint" />
            <mxPoint x="440" y="280" as="targetPoint" />
          </mxGeometry>
        </mxCell>
        <mxCell id="fJ_m940XIqK0hsvLyduS-79" value="Nama" style="ellipse;whiteSpace=wrap;html=1;" vertex="1" parent="1">
          <mxGeometry x="590" y="400" width="50" height="40" as="geometry" />
        </mxCell>
        <mxCell id="fJ_m940XIqK0hsvLyduS-80" value="Jenis Obat" style="ellipse;whiteSpace=wrap;html=1;" vertex="1" parent="1">
          <mxGeometry x="700" y="440" width="70" height="40" as="geometry" />
        </mxCell>
        <mxCell id="fJ_m940XIqK0hsvLyduS-81" value="Nama" style="ellipse;whiteSpace=wrap;html=1;" vertex="1" parent="1">
          <mxGeometry x="750" y="390" width="50" height="40" as="geometry" />
        </mxCell>
        <mxCell id="fJ_m940XIqK0hsvLyduS-82" value="expired" style="ellipse;whiteSpace=wrap;html=1;" vertex="1" parent="1">
          <mxGeometry x="640" y="440" width="50" height="40" as="geometry" />
        </mxCell>
        <mxCell id="fJ_m940XIqK0hsvLyduS-83" value="" style="endArrow=none;html=1;rounded=0;entryX=0.5;entryY=1;entryDx=0;entryDy=0;exitX=0.5;exitY=0;exitDx=0;exitDy=0;" edge="1" parent="1" source="fJ_m940XIqK0hsvLyduS-79" target="fJ_m940XIqK0hsvLyduS-3">
          <mxGeometry width="50" height="50" relative="1" as="geometry">
            <mxPoint x="390" y="330" as="sourcePoint" />
            <mxPoint x="440" y="280" as="targetPoint" />
          </mxGeometry>
        </mxCell>
        <mxCell id="fJ_m940XIqK0hsvLyduS-84" value="" style="endArrow=none;html=1;rounded=0;entryX=0.5;entryY=1;entryDx=0;entryDy=0;" edge="1" parent="1" source="fJ_m940XIqK0hsvLyduS-82" target="fJ_m940XIqK0hsvLyduS-3">
          <mxGeometry width="50" height="50" relative="1" as="geometry">
            <mxPoint x="390" y="330" as="sourcePoint" />
            <mxPoint x="440" y="280" as="targetPoint" />
          </mxGeometry>
        </mxCell>
        <mxCell id="fJ_m940XIqK0hsvLyduS-85" value="" style="endArrow=none;html=1;rounded=0;entryX=0.5;entryY=1;entryDx=0;entryDy=0;exitX=0.5;exitY=0;exitDx=0;exitDy=0;exitPerimeter=0;" edge="1" parent="1" source="fJ_m940XIqK0hsvLyduS-80" target="fJ_m940XIqK0hsvLyduS-3">
          <mxGeometry width="50" height="50" relative="1" as="geometry">
            <mxPoint x="390" y="330" as="sourcePoint" />
            <mxPoint x="440" y="280" as="targetPoint" />
          </mxGeometry>
        </mxCell>
        <mxCell id="fJ_m940XIqK0hsvLyduS-86" value="" style="endArrow=none;html=1;rounded=0;exitX=0.35;exitY=-0.031;exitDx=0;exitDy=0;exitPerimeter=0;" edge="1" parent="1" source="fJ_m940XIqK0hsvLyduS-81">
          <mxGeometry width="50" height="50" relative="1" as="geometry">
            <mxPoint x="390" y="330" as="sourcePoint" />
            <mxPoint x="690" y="360" as="targetPoint" />
          </mxGeometry>
        </mxCell>
        <mxCell id="fJ_m940XIqK0hsvLyduS-88" value="" style="edgeStyle=entityRelationEdgeStyle;fontSize=12;html=1;endArrow=ERoneToMany;rounded=0;exitX=1;exitY=0.5;exitDx=0;exitDy=0;" edge="1" parent="1" source="fJ_m940XIqK0hsvLyduS-28" target="fJ_m940XIqK0hsvLyduS-5">
          <mxGeometry width="100" height="100" relative="1" as="geometry">
            <mxPoint x="370" y="230" as="sourcePoint" />
            <mxPoint x="470" y="130" as="targetPoint" />
          </mxGeometry>
        </mxCell>
        <mxCell id="fJ_m940XIqK0hsvLyduS-89" value="" style="edgeStyle=entityRelationEdgeStyle;fontSize=12;html=1;endArrow=ERzeroToMany;endFill=1;rounded=0;entryX=0;entryY=0.5;entryDx=0;entryDy=0;exitX=1;exitY=0.5;exitDx=0;exitDy=0;" edge="1" parent="1" source="fJ_m940XIqK0hsvLyduS-53" target="fJ_m940XIqK0hsvLyduS-6">
          <mxGeometry width="100" height="100" relative="1" as="geometry">
            <mxPoint x="590" y="180" as="sourcePoint" />
            <mxPoint x="525" y="80" as="targetPoint" />
            <Array as="points">
              <mxPoint x="585" y="100" />
              <mxPoint x="520" y="170" />
            </Array>
          </mxGeometry>
        </mxCell>
        <mxCell id="fJ_m940XIqK0hsvLyduS-90" value="" style="edgeStyle=entityRelationEdgeStyle;fontSize=12;html=1;endArrow=ERoneToMany;rounded=0;entryX=1;entryY=0.5;entryDx=0;entryDy=0;exitX=0;exitY=0.5;exitDx=0;exitDy=0;" edge="1" parent="1" source="fJ_m940XIqK0hsvLyduS-28" target="fJ_m940XIqK0hsvLyduS-2">
          <mxGeometry width="100" height="100" relative="1" as="geometry">
            <mxPoint x="50" y="310" as="sourcePoint" />
            <mxPoint x="150" y="210" as="targetPoint" />
          </mxGeometry>
        </mxCell>
        <mxCell id="fJ_m940XIqK0hsvLyduS-91" value="" style="edgeStyle=entityRelationEdgeStyle;fontSize=12;html=1;endArrow=ERone;endFill=1;rounded=0;exitX=0;exitY=0.5;exitDx=0;exitDy=0;" edge="1" parent="1" source="fJ_m940XIqK0hsvLyduS-53" target="fJ_m940XIqK0hsvLyduS-5">
          <mxGeometry width="100" height="100" relative="1" as="geometry">
            <mxPoint x="400" y="320" as="sourcePoint" />
            <mxPoint x="500" y="220" as="targetPoint" />
          </mxGeometry>
        </mxCell>
        <mxCell id="fJ_m940XIqK0hsvLyduS-94" value="" style="edgeStyle=entityRelationEdgeStyle;fontSize=12;html=1;endArrow=ERone;endFill=1;rounded=0;exitX=0.5;exitY=0;exitDx=0;exitDy=0;" edge="1" parent="1" source="fJ_m940XIqK0hsvLyduS-62">
          <mxGeometry width="100" height="100" relative="1" as="geometry">
            <mxPoint x="440" y="270" as="sourcePoint" />
            <mxPoint x="400" y="200" as="targetPoint" />
          </mxGeometry>
        </mxCell>
        <mxCell id="fJ_m940XIqK0hsvLyduS-95" value="" style="edgeStyle=entityRelationEdgeStyle;fontSize=12;html=1;endArrow=ERzeroToMany;endFill=1;rounded=0;exitX=1;exitY=0.5;exitDx=0;exitDy=0;entryX=0;entryY=0.75;entryDx=0;entryDy=0;" edge="1" parent="1" source="fJ_m940XIqK0hsvLyduS-63" target="fJ_m940XIqK0hsvLyduS-5">
          <mxGeometry width="100" height="100" relative="1" as="geometry">
            <mxPoint x="400" y="320" as="sourcePoint" />
            <mxPoint x="330" y="210" as="targetPoint" />
          </mxGeometry>
        </mxCell>
        <mxCell id="fJ_m940XIqK0hsvLyduS-97" value="" style="edgeStyle=entityRelationEdgeStyle;fontSize=12;html=1;endArrow=ERmany;rounded=0;entryX=1;entryY=0.75;entryDx=0;entryDy=0;exitX=0.106;exitY=0.489;exitDx=0;exitDy=0;exitPerimeter=0;" edge="1" parent="1" source="fJ_m940XIqK0hsvLyduS-64" target="fJ_m940XIqK0hsvLyduS-5">
          <mxGeometry width="100" height="100" relative="1" as="geometry">
            <mxPoint x="400" y="320" as="sourcePoint" />
            <mxPoint x="500" y="220" as="targetPoint" />
          </mxGeometry>
        </mxCell>
        <mxCell id="fJ_m940XIqK0hsvLyduS-99" value="" style="edgeStyle=entityRelationEdgeStyle;fontSize=12;html=1;endArrow=ERzeroToMany;endFill=1;rounded=0;exitX=0;exitY=0.5;exitDx=0;exitDy=0;entryX=1;entryY=0.5;entryDx=0;entryDy=0;" edge="1" parent="1" source="fJ_m940XIqK0hsvLyduS-63" target="fJ_m940XIqK0hsvLyduS-7">
          <mxGeometry width="100" height="100" relative="1" as="geometry">
            <mxPoint x="310" y="290" as="sourcePoint" />
            <mxPoint x="383" y="200" as="targetPoint" />
          </mxGeometry>
        </mxCell>
        <mxCell id="fJ_m940XIqK0hsvLyduS-100" value="" style="edgeStyle=entityRelationEdgeStyle;fontSize=12;html=1;endArrow=ERoneToMany;rounded=0;entryX=0;entryY=0.5;entryDx=0;entryDy=0;" edge="1" parent="1" source="fJ_m940XIqK0hsvLyduS-64" target="fJ_m940XIqK0hsvLyduS-3">
          <mxGeometry width="100" height="100" relative="1" as="geometry">
            <mxPoint x="400" y="320" as="sourcePoint" />
            <mxPoint x="500" y="220" as="targetPoint" />
          </mxGeometry>
        </mxCell>
        <mxCell id="fJ_m940XIqK0hsvLyduS-102" value="" style="edgeStyle=entityRelationEdgeStyle;fontSize=12;html=1;endArrow=ERoneToMany;rounded=0;exitX=0.5;exitY=1;exitDx=0;exitDy=0;entryX=0.5;entryY=0;entryDx=0;entryDy=0;" edge="1" parent="1" source="fJ_m940XIqK0hsvLyduS-62" target="fJ_m940XIqK0hsvLyduS-4">
          <mxGeometry width="100" height="100" relative="1" as="geometry">
            <mxPoint x="430" y="290" as="sourcePoint" />
            <mxPoint x="530" y="190" as="targetPoint" />
          </mxGeometry>
        </mxCell>
      </root>
    </mxGraphModel>
  </diagram>
</mxfile>
